<svg width="32" height="32" viewBox="0 0 32 32" fill="none" xmlns="http://www.w3.org/2000/svg">
<path fill-rule="evenodd" clip-rule="evenodd" d="M16 1C7.7125 1 1 7.88228 1 16.3794C1 23.1848 5.29375 28.9328 11.2562 30.9706C12.0062 31.1052 12.2875 30.6438 12.2875 30.2401C12.2875 29.8748 12.2688 28.6637 12.2688 27.3757C8.5 28.087 7.525 26.4337 7.225 25.5686C7.05625 25.1264 6.325 23.7615 5.6875 23.3963C5.1625 23.1079 4.4125 22.3966 5.66875 22.3774C6.85 22.3582 7.69375 23.4924 7.975 23.9538C9.325 26.2799 11.4813 25.6263 12.3438 25.2226C12.475 24.2229 12.8687 23.5501 13.3 23.1656C9.9625 22.7811 6.475 21.4546 6.475 15.572C6.475 13.8995 7.05625 12.5153 8.0125 11.4388C7.8625 11.0543 7.3375 9.4779 8.1625 7.36323C8.1625 7.36323 9.41875 6.95952 12.2875 8.93962C13.4875 8.59358 14.7625 8.42056 16.0375 8.42056C17.3125 8.42056 18.5875 8.59358 19.7875 8.93962C22.6563 6.9403 23.9125 7.36323 23.9125 7.36323C24.7375 9.4779 24.2125 11.0543 24.0625 11.4388C25.0188 12.5153 25.6 13.8803 25.6 15.572C25.6 21.4738 22.0938 22.7811 18.7563 23.1656C19.3 23.6462 19.7688 24.5689 19.7688 26.0108C19.7688 28.0678 19.75 29.721 19.75 30.2401C19.75 30.6438 20.0313 31.1244 20.7813 30.9706C23.759 29.9399 26.3466 27.9777 28.1797 25.3603C30.0128 22.7428 30.9992 19.6018 31 16.3794C31 7.88228 24.2875 1 16 1Z" stroke="#E7E7E7" stroke-width="1.5" stroke-linejoin="round"/>
</svg>
