<svg width="60" height="50" viewBox="0 0 60 50" fill="none" xmlns="http://www.w3.org/2000/svg">
<path d="M27.8653 45.5228L27.8653 45.5228C26.8067 46.6556 25.7981 47.6829 25.0271 48.4249C24.6407 48.7968 24.319 49.0921 24.0828 49.2922C24.038 49.3301 23.9975 49.3636 23.9611 49.3929C23.9543 49.3869 23.9474 49.3808 23.9404 49.3744C23.7628 49.2153 23.5097 48.9762 23.187 48.6627C22.5428 48.0368 21.6365 47.1292 20.5334 46.0061C18.3279 43.7607 15.3437 40.6621 12.1138 37.2528L0.689022 25.1937L12.3159 12.9409L23.9073 0.726364L27.649 4.66929L27.6491 4.66933L31.4293 8.65207L27.0871 13.2762L22.4218 18.2445L21.6308 19.0867H22.7862H41.3927L59.5 19.0867L59.5 25.2001V31.3134L41.3927 31.3134H22.7862H21.6309L22.4217 32.1556L27.0769 37.1131L31.4114 41.7292L27.8653 45.5228Z" fill="#78A2D2" stroke="black"/>
<path d="M23.9136 45.04L11.3618 32.2267" stroke="black" stroke-linecap="round" stroke-dasharray="2 2"/>
<path d="M22.3442 6.18677L8.22345 21.0667" stroke="black" stroke-linecap="round" stroke-dasharray="2 2"/>
<path d="M8.22412 28.5068L5.87066 26.0268" stroke="black" stroke-linecap="round" stroke-dasharray="2 2"/>
</svg>
