<svg width="1440" height="1024" viewBox="0 0 1440 1024" fill="none" xmlns="http://www.w3.org/2000/svg">
<path fill-rule="evenodd" clip-rule="evenodd" d="M0 898.489L39.6 928.723C80.4 958.958 159.6 1019.43 240 1023.75C320.4 1028.07 399.6 976.235 480 937.362C560.4 898.489 639.6 872.573 720 855.296C800.4 838.019 879.6 829.381 960 842.338C1040.4 855.296 1119.6 889.85 1200 911.446C1280.4 933.043 1359.6 941.681 1400.4 946L1440 950.32V820.742H1400.4C1359.6 820.742 1280.4 820.742 1200 820.742C1119.6 820.742 1040.4 820.742 960 820.742C879.6 820.742 800.4 820.742 720 820.742C639.6 820.742 560.4 820.742 480 820.742C399.6 820.742 320.4 820.742 240 820.742C159.6 820.742 80.4 820.742 39.6 820.742H0V898.489Z" fill="#111111"/>
<path fill-rule="evenodd" clip-rule="evenodd" d="M1103.98 0.556866C1010.46 9.02415 938.48 64.6968 881.218 172.843C863.214 206.847 845.286 248.427 814.234 328.193C778.161 420.858 760.626 460.969 739.489 499.165C692.182 584.649 626.578 643.517 537.822 680.123C514.832 689.605 496.494 695.748 470.193 702.776C425.266 714.783 389.428 720.793 286.205 733.626C226.46 741.055 194.047 745.997 162.05 752.558C111.413 762.94 65.956 777.989 14.2108 801.502L0.997559 807.506V813.824V820.141H719.002H1437.01V461.705V103.268L1421 95.1095C1315.13 41.1602 1228.96 10.0273 1163.27 1.98784C1148.22 0.146638 1116.87 -0.609709 1103.98 0.556866Z" fill="#111111"/>
</svg>
