<svg width="60" height="50" viewBox="0 0 60 50" fill="none" xmlns="http://www.w3.org/2000/svg">
<path d="M32.1347 4.47724L32.1347 4.47719C33.1933 3.34445 34.2019 2.31707 34.9729 1.57505C35.3593 1.20323 35.681 0.907872 35.9172 0.707836C35.962 0.669909 36.0025 0.636388 36.0389 0.607095C36.0457 0.613087 36.0526 0.619239 36.0596 0.625553C36.2372 0.784679 36.4903 1.02379 36.813 1.33734C37.4572 1.96316 38.3635 2.87081 39.4666 3.99389C41.6721 6.2393 44.6563 9.33786 47.8862 12.7472L59.311 24.8063L47.6841 37.0591L36.0927 49.2736L32.351 45.3307L32.3509 45.3307L28.5707 41.3479L32.9129 36.7238L37.5782 31.7555L38.3692 30.9133H37.2138H18.6073H0.5V24.7999V18.6866H18.6073H37.2138H38.3691L37.5783 17.8444L32.9231 12.8869L28.5886 8.27083L32.1347 4.47724Z" fill="#78A2D2" stroke="black"/>
<path d="M36.0869 4.95996L48.6387 17.7733" stroke="black" stroke-linecap="round" stroke-dasharray="2 2"/>
<path d="M37.6558 43.8132L51.7765 28.9333" stroke="black" stroke-linecap="round" stroke-dasharray="2 2"/>
<path d="M51.7769 21.4932L54.1303 23.9732" stroke="black" stroke-linecap="round" stroke-dasharray="2 2"/>
</svg>
