<?xml version="1.0" standalone="no"?>
<!DOCTYPE svg PUBLIC "-//W3C//DTD SVG 20010904//EN"
 "http://www.w3.org/TR/2001/REC-SVG-20010904/DTD/svg10.dtd">
<svg version="1.0" xmlns="http://www.w3.org/2000/svg"
 width="260.000000pt" height="260.000000pt" viewBox="0 0 260.000000 260.000000"
 preserveAspectRatio="xMidYMid meet">
<metadata>
Created by potrace 1.14, written by Peter Selinger 2001-2017
</metadata>
<g transform="translate(0.000000,260.000000) scale(0.100000,-0.100000)"
fill="#000000" stroke="none">
<path d="M1656 2103 c-1 -2 -29 -5 -62 -8 -32 -3 -77 -7 -99 -10 -22 -3 -67
-7 -100 -10 -33 -3 -76 -8 -95 -10 -45 -6 -133 -13 -240 -20 -47 -3 -105 -8
-130 -10 -25 -2 -90 -7 -145 -11 -55 -3 -109 -12 -120 -19 -16 -10 -25 -39
-44 -141 -13 -71 -25 -138 -27 -149 -6 -30 -23 -125 -29 -165 -3 -19 -31 -150
-61 -290 -67 -310 -69 -323 -52 -337 14 -12 258 -153 264 -153 2 0 33 -18 69
-40 36 -22 68 -40 70 -40 4 0 280 -163 346 -205 9 -5 34 -20 55 -33 45 -26 69
-40 106 -64 14 -10 36 -18 47 -18 18 0 138 101 267 225 25 24 118 109 165 150
33 29 168 145 245 212 106 91 127 110 135 125 11 20 11 20 -128 308 -47 96
-130 276 -185 400 -139 313 -137 309 -161 315 -20 5 -85 3 -91 -2z"/>
</g>
</svg>
