<svg width="241" height="256" viewBox="0 0 241 256" fill="none" xmlns="http://www.w3.org/2000/svg">
<path fill-rule="evenodd" clip-rule="evenodd" d="M133.291 0.872121C158.962 -4.24484 184.946 14.0551 203.916 32.2521C221.349 48.9749 233.176 72.942 233.726 97.2148C234.222 119.112 205.466 133.896 206.714 155.762C208.091 179.912 244.517 194.466 240.635 218.337C237.208 239.409 211.556 254.283 190.455 255.731C168.654 257.228 152.216 236.735 133.291 225.705C123.085 219.757 116.477 205.216 104.705 205.754C69.2051 207.377 24.1008 260.6 3.10137 231.655C-16.8559 204.146 65.9375 189.768 68.4357 155.762C70.6434 125.711 11.1412 116.117 13.7942 86.1028C15.885 62.448 57.9073 71.2292 77.1186 57.5268C99.1095 41.8419 106.877 6.13737 133.291 0.872121Z" fill="url(#paint0_linear_678_709)"/>
<defs>
<linearGradient id="paint0_linear_678_709" x1="0" y1="127.905" x2="240.925" y2="127.905" gradientUnits="userSpaceOnUse">
<stop stop-color="#DE6161"/>
<stop offset="1" stop-color="#2657EB"/>
</linearGradient>
</defs>
</svg>
